<svg clip-rule="evenodd" fill-rule="evenodd" height="2048" image-rendering="optimizeQuality" shape-rendering="geometricPrecision" text-rendering="geometricPrecision" viewBox="0 0 2048 2048" width="2048" xmlns="http://www.w3.org/2000/svg"><g id="Layer_x0020_1"><g id="_393028536" fill="#424242"><g fill-rule="nonzero"><path id="_393028656" d="m351.807 1606.02v-209.82h155.549v35.51h-113.193v46.51h105.327v35.32h-105.327v57.11h117.199v35.37z"/><path id="_393028416" d="m1567.81 1606.02v-209.82h143.87v35.51h-101.47v49.64h87.6v35.51h-87.6v89.16z"/><path id="_393028488" d="m1023.81 1125.15c29.3882 0 55.9985 11.915 75.2611 31.1776 19.2638 19.2614 31.1788 45.8717 31.1788 75.2611 0 29.3882-11.915 55.9985-31.1776 75.2623-19.2638 19.2626-45.8741 31.1776-75.2623 31.1776s-55.9985-11.915-75.2623-31.1776c-19.2626-19.2638-31.1776-45.8741-31.1776-75.2623 0-29.3894 11.915-55.9996 31.1788-75.2611 19.2626-19.2626 45.8729-31.1776 75.2611-31.1776z"/><path id="_393028296" d="m533.778 924.969c-13.1421-7.71142-30.0484-3.3-37.7551 9.8445-7.70552 13.1445-3.3 30.0484 9.8445 37.7551l342.195 250.661c34.5 20.2311 78.8741 8.66103 99.1052-25.839 20.2311-34.5 8.66103-78.8741-25.839-99.1052l-387.551-173.316z"/></g><path id="_393028776" d="m291.423 1161.47c-23.0823-11.9516-36.3071-37.4339-32.3563-63.502 27.7382-183.062 121.011-349.38 261.442-469.8 140.597-120.567 318.076-186.182 503.306-186.182 185.699 0 363.603 65.9386 504.339 187.068 140.597 121.011 233.688 288.042 260.812 471.713 4.21063 28.5083-12.0756 55.7469-38.3386 65.9457l-129.821 98.7768c-26.8595 20.4366-65.2252 15.3047-85.7138-11.5299-20.5063-26.8571-15.3626-65.3174 11.5394-85.7847l114.47-87.0981c-29.3421-139.752-104.219-265.881-212.622-359.179-118.537-102.024-268.276-157.407-424.666-157.407-155.956 0-305.321 55.0654-423.718 156.593-108.664 93.1808-183.816 219.311-213.372 359.144l117.007 89.0292c26.902 20.4673 32.0457 58.9276 11.5394 85.7847-20.4886 26.8347-58.8544 31.9666-85.7127 11.5299l-138.135-105.1z"/></g></g><path d="m0 0h2048v2048h-2048z" fill="none"/></svg>