<svg id="Layer_1" enable-background="new 0 0 512 512" height="512" viewBox="0 0 512 512" width="512" xmlns="http://www.w3.org/2000/svg"><path d="m512 59.733c0-33.926-28.283-61.247-62.557-59.668-30.347 1.398-55.085 25.848-56.81 56.178-1.439 25.296 12.876 47.415 34.034 57.467v82.556c0 18.851-15.282 34.133-34.133 34.133h-82.556c-5.901-12.419-15.958-22.477-28.377-28.377v-88.312c21.158-10.053 35.473-32.171 34.034-57.467-1.725-30.33-26.463-54.78-56.81-56.178-34.274-1.578-62.557 25.742-62.557 59.668 0 23.827 13.954 44.39 34.133 53.977v88.313c-12.419 5.901-22.477 15.958-28.377 28.377h-116.691v-116.69c21.158-10.053 35.473-32.171 34.034-57.467-1.725-30.33-26.463-54.78-56.81-56.178-34.274-1.578-62.557 25.742-62.557 59.668 0 23.827 13.954 44.39 34.133 53.977v284.579c-21.158 10.053-35.473 32.171-34.034 57.467 1.725 30.33 26.463 54.78 56.81 56.178 34.274 1.578 62.557-25.742 62.557-59.668 0-23.827-13.954-44.39-34.133-53.977v-116.689h116.689c5.901 12.419 15.958 22.477 28.377 28.377v88.313c-21.158 10.053-35.473 32.171-34.034 57.467 1.725 30.33 26.463 54.78 56.81 56.178 34.274 1.578 62.557-25.742 62.557-59.668 0-23.827-13.954-44.39-34.133-53.977v-88.313c12.419-5.901 22.477-15.958 28.377-28.377h82.556c47.128 0 85.333-38.205 85.333-85.333v-82.557c20.181-9.587 34.135-30.15 34.135-53.977z"/></svg>