<svg height="512" viewBox="0 0 64 64" width="512" xmlns="http://www.w3.org/2000/svg"><g id="Glyph"><path d="m14 60h8v-16h-8zm2-4h4v2h-4z"/><path d="m14 40h8v2h-8z"/><path d="m12 37a2.87 2.87 0 0 1 3-3h6a2.87 2.87 0 0 1 3 3v5h4v-7a6.847 6.847 0 0 0 -7-7h-6a6.847 6.847 0 0 0 -7 7v7h4z"/><path d="m21 36h-6a.879.879 0 0 0 -1 1v1h8v-1a.879.879 0 0 0 -1-1z"/><path d="m10 44h2v16h-2z"/><path d="m50 4h-6a3 3 0 0 0 -2.816 2h11.632a3 3 0 0 0 -2.816-2z"/><path d="m51 8h2v12h-2z"/><path d="m14 19v8h2v-8h4v8h2v-8a1 1 0 0 0 0-2h-8a1 1 0 0 0 0 2z"/><path d="m41 8h2v12h-2z"/><path d="m6 60h2v-16h-2a1.838 1.838 0 0 0 -2 2v12a1.838 1.838 0 0 0 2 2z"/><circle cx="40" cy="42" r="2"/><path d="m52 43.828v-7.828h-4v12.243a1 1 0 0 1 .293-.707z"/><path d="m48 30h8v4h-8z"/><path d="m51.242 46.243h4v4h-4z" transform="matrix(.707 -.707 .707 .707 -18.519 51.772)"/><path d="m24 44h2v16h-2z"/><path d="m55 22h-16a5.067 5.067 0 0 0 -5 5v24a5.067 5.067 0 0 0 5 5h16a5.067 5.067 0 0 0 5-5v-24a5.067 5.067 0 0 0 -5-5zm-13 23.444v8.556h-2v-8a4 4 0 0 1 0-8v-14h2v14.556a3.965 3.965 0 0 1 0 6.888zm16.192 3.506-4.192 4.192v.858h-2v-1.343l-3.707-3.707a1 1 0 0 1 -.293-.707v5.757h-2v-30h2v4h4v-4h2v4h3a1 1 0 0 1 1 1v6a1 1 0 0 1 -1 1h-3v7.344l4.192 4.192a1 1 0 0 1 0 1.414z"/><circle cx="54.5" cy="58.5" r="1.5"/><path d="m28 60h2a1.838 1.838 0 0 0 2-2v-12a1.838 1.838 0 0 0 -2-2h-2z"/><circle cx="39.5" cy="58.5" r="1.5"/></g></svg>