<?xml version="1.0" standalone="no"?>
<svg xmlns="http://www.w3.org/2000/svg" version="1.1" xmlns:xlink="http://www.w3.org/1999/xlink" width="512" height="512" x="0" y="0" viewBox="0 0 512 512" style="enable-background:new 0 0 512 512" xml:space="preserve" class=""><g><path fill="#efefef" d="M501.15 396.46c-6.93-7.74-28.27-27.06-43.56-38.58-15.03-11.78-39.57-27.73-49.13-32.67-15.63-8.13-39.18-7.23-53.81 2.61-8.76 6.07-20.05 14.83-33.23 28.57-.07.08-.15.16-.22.23-11.39 12-29.73 14.02-43.43 4.75-23.86-16.16-47.48-35.68-69.46-57.67-21.99-21.98-41.51-45.6-57.67-69.46-9.28-13.7-7.25-32.04 4.75-43.43.08-.07.16-.15.23-.22 13.75-13.18 22.5-24.47 28.57-33.23 9.84-14.63 10.74-38.18 2.61-53.81-4.94-9.56-20.89-34.1-32.67-49.13-11.52-15.29-30.84-36.63-38.58-43.56C102.89-.55 81.52-3.52 66.61 4.6c-8.96 5.06-20.69 12.57-34.99 25.14-.37.34-.75.68-1.12 1.02-65.93 56.71-22.53 214.96 106.72 344.02C266.28 504.03 424.53 547.43 481.25 481.5c.34-.37.68-.75 1.02-1.12 12.56-14.31 20.08-26.03 25.14-34.99 8.12-14.92 5.14-36.29-6.26-48.93z" opacity="1" data-original="#57b236" class=""/><path fill="#ffffff" d="M208.3 303.7c-21.99-21.98-41.51-45.6-57.67-69.46-9.28-13.7-7.25-32.04 4.75-43.43.08-.07.16-.15.23-.22 13.75-13.18 22.5-24.47 28.57-33.23 9.84-14.63 10.74-38.18 2.61-53.81-4.94-9.56-20.89-34.1-32.67-49.13-11.52-15.29-30.84-36.63-38.58-43.56C102.89-.55 81.52-3.52 66.61 4.6c-8.96 5.06-20.69 12.57-34.99 25.14-.37.34-.75.68-1.12 1.02-65.93 56.71-22.53 214.96 106.72 344.02 8 8.01 16.11 15.69 24.3 23.03 39.87-5.88 76.99-20.22 109.47-41.14-21.55-15.2-42.79-33.07-62.68-52.97z" opacity="1" data-original="#6fba47" class=""/></g></svg>