<svg id="Capa_1" enable-background="new 0 0 511.54 511.54" height="512" viewBox="0 0 511.54 511.54" width="512" xmlns="http://www.w3.org/2000/svg"><g><path d="m468.501 70.707h-181.657c-23.731 0-43.038 19.307-43.038 43.038v24.61c0 4.142 3.358 7.5 7.5 7.5s7.5-3.358 7.5-7.5v-24.61c0-15.46 12.578-28.038 28.038-28.038h181.657c15.46 0 28.038 12.578 28.038 28.038v175.743c0 15.46-12.578 28.038-28.038 28.038h-181.657c-15.46 0-28.038-12.578-28.038-28.038v-119.17c0-4.142-3.358-7.5-7.5-7.5s-7.5 3.358-7.5 7.5v119.17c0 23.731 19.307 43.038 43.038 43.038h181.657c23.731 0 43.038-19.307 43.038-43.038v-175.743c.001-23.731-19.306-43.038-43.038-43.038z"/><path d="m474.04 240.513c4.142 0 7.5-3.358 7.5-7.5v-119.268c0-7.189-5.849-13.038-13.038-13.038h-181.658c-7.189 0-13.038 5.849-13.038 13.038v175.743c0 7.189 5.849 13.038 13.038 13.038h181.657c7.189 0 13.038-5.849 13.038-13.038v-24.512c0-4.142-3.358-7.5-7.5-7.5s-7.5 3.358-7.5 7.5v22.549h-177.733v-171.818h177.734v117.306c0 4.142 3.357 7.5 7.5 7.5z"/><path d="m310.511 201.616c0 37.033 30.128 67.162 67.162 67.162s67.162-30.128 67.162-67.162-30.128-67.162-67.162-67.162-67.162 30.129-67.162 67.162zm119.323 0c0 28.762-23.399 52.162-52.162 52.162s-52.162-23.399-52.162-52.162 23.399-52.162 52.162-52.162 52.162 23.4 52.162 52.162z"/><path d="m340.511 201.616c0 20.491 16.67 37.162 37.162 37.162s37.162-16.67 37.162-37.162-16.67-37.162-37.162-37.162-37.162 16.671-37.162 37.162zm59.323 0c0 12.22-9.942 22.162-22.162 22.162s-22.162-9.942-22.162-22.162 9.942-22.162 22.162-22.162 22.162 9.942 22.162 22.162z"/><path d="m483.4 345.796c-4.142 0-7.5 3.358-7.5 7.5v34.078c0 21.206-17.252 38.458-38.458 38.458h-383.984c-21.206.001-38.458-17.252-38.458-38.457v-239.519c0-21.206 17.252-38.458 38.458-38.458h168.941c4.142 0 7.5-3.358 7.5-7.5s-3.358-7.5-7.5-7.5h-168.941c-29.477 0-53.458 23.981-53.458 53.458v239.519c0 29.477 23.981 53.458 53.458 53.458h383.983c29.477 0 53.458-23.981 53.458-53.458v-34.078c.001-4.143-3.357-7.501-7.499-7.501z"/><path d="m202.767 180.811c0-13.222-10.757-23.979-23.979-23.979h-98.053c-13.222 0-23.979 10.757-23.979 23.979v20.454c0 4.142 3.358 7.5 7.5 7.5s7.5-3.358 7.5-7.5v-20.454c0-4.951 4.028-8.979 8.979-8.979h98.053c4.951 0 8.979 4.028 8.979 8.979v67.768h-116.011v-15.352c0-4.142-3.358-7.5-7.5-7.5s-7.5 3.358-7.5 7.5v55.317c0 13.222 10.757 23.979 23.979 23.979h98.053c13.222 0 23.979-10.757 23.979-23.979zm-23.979 116.712h-98.053c-4.951 0-8.979-4.028-8.979-8.979v-24.965h116.011v24.965c0 4.951-4.028 8.979-8.979 8.979z"/><path d="m46.038 131.865c-4.142 0-7.5 3.358-7.5 7.5v3.94c0 4.142 3.358 7.5 7.5 7.5s7.5-3.358 7.5-7.5v-3.94c0-4.142-3.358-7.5-7.5-7.5z"/><path d="m188.426 346.816h-117.329c-7.908 0-14.341 6.434-14.341 14.341v22.582c0 7.908 6.434 14.341 14.341 14.341h117.329c7.908 0 14.342-6.434 14.342-14.341v-22.582c0-7.907-6.434-14.341-14.342-14.341zm-.658 36.265h-116.012v-21.265h116.012z"/><path d="m226.345 378.333c0 8.133 6.617 14.75 14.75 14.75h20.424c8.133 0 14.75-6.617 14.75-14.75v-11.771c0-8.133-6.617-14.75-14.75-14.75h-20.424c-8.133 0-14.75 6.617-14.75 14.75zm15-11.52h19.923v11.27h-19.923z"/><path d="m341.486 366.342h3.112c4.142 0 7.5-3.358 7.5-7.5s-3.358-7.5-7.5-7.5h-3.112c-4.142 0-7.5 3.358-7.5 7.5s3.358 7.5 7.5 7.5z"/><path d="m380.566 366.342h3.113c4.142 0 7.5-3.358 7.5-7.5s-3.358-7.5-7.5-7.5h-3.113c-4.142 0-7.5 3.358-7.5 7.5s3.358 7.5 7.5 7.5z"/><path d="m419.647 366.342h3.113c4.142 0 7.5-3.358 7.5-7.5s-3.358-7.5-7.5-7.5h-3.113c-4.142 0-7.5 3.358-7.5 7.5s3.358 7.5 7.5 7.5z"/><path d="m341.486 394.702h3.112c4.142 0 7.5-3.358 7.5-7.5s-3.358-7.5-7.5-7.5h-3.112c-4.142 0-7.5 3.358-7.5 7.5s3.358 7.5 7.5 7.5z"/><path d="m380.566 394.702h3.113c4.142 0 7.5-3.358 7.5-7.5s-3.358-7.5-7.5-7.5h-3.113c-4.142 0-7.5 3.358-7.5 7.5s3.358 7.5 7.5 7.5z"/><path d="m419.647 394.702h3.113c4.142 0 7.5-3.358 7.5-7.5s-3.358-7.5-7.5-7.5h-3.113c-4.142 0-7.5 3.358-7.5 7.5s3.358 7.5 7.5 7.5z"/></g></svg>