<?xml version="1.0" encoding="UTF-8" standalone="no"?>
<!-- Created with Inkscape (http://www.inkscape.org/) -->

<svg
   version="1.1"
   id="svg147"
   xml:space="preserve"
   width="682.66669"
   height="682.66669"
   viewBox="0 0 682.66669 682.66669"
   xmlns="http://www.w3.org/2000/svg"
   xmlns:svg="http://www.w3.org/2000/svg"><defs
     id="defs151"><clipPath
       clipPathUnits="userSpaceOnUse"
       id="clipPath161"><path
         d="M 0,512 H 512 V 0 H 0 Z"
         id="path159" /></clipPath></defs><g
     id="g153"
     transform="matrix(1.3333333,0,0,-1.3333333,0,682.66667)"><g
       id="g155"><g
         id="g157"
         clip-path="url(#clipPath161)"><g
           id="g163"
           transform="translate(492,373)"><path
             d="M 0,0 -86,-56.542"
             style="fill:none;stroke:#000000;stroke-width:40;stroke-linecap:round;stroke-linejoin:round;stroke-miterlimit:10;stroke-dasharray:none;stroke-opacity:1"
             id="path165" /></g><g
           id="g167"
           transform="translate(218.7759,348)"><path
             d="m 0,0 c 5.294,12.439 8.224,26.127 8.224,40.5 0,57.162 -46.338,103.5 -103.5,103.5 -57.161,0 -103.5,-46.338 -103.5,-103.5 0,-57.162 46.339,-103.5 103.5,-103.5 13.607,0 26.599,2.625 38.5,7.397"
             style="fill:none;stroke:#000000;stroke-width:40;stroke-linecap:round;stroke-linejoin:round;stroke-miterlimit:10;stroke-dasharray:none;stroke-opacity:1"
             id="path169" /></g><g
           id="g171"
           transform="translate(416,452)"><path
             d="m 0,0 c 0,22.091 -17.909,40 -40,40 -22.091,0 -40,-17.909 -40,-40 0,-22.091 17.909,-40 40,-40 22.091,0 40,17.909 40,40 z"
             style="fill:none;stroke:#000000;stroke-width:40;stroke-linecap:round;stroke-linejoin:round;stroke-miterlimit:10;stroke-dasharray:none;stroke-opacity:1"
             id="path173" /></g><g
           id="g175"
           transform="translate(353.9756,161.9995)"><path
             d="m 0,0 c 7.655,5.246 13.46,13.128 16.011,22.571 l 32.544,120.493 c 5.667,21.353 -7.049,43.256 -28.401,48.923 -21.804,5.787 -44.38,-7.318 -50.167,-29.123 L -50.056,87.345 71.024,-142"
             style="fill:none;stroke:#000000;stroke-width:40;stroke-linecap:round;stroke-linejoin:round;stroke-miterlimit:10;stroke-dasharray:none;stroke-opacity:1"
             id="path177" /></g><g
           id="g179"
           transform="translate(141,20)"><path
             d="M 0,0 65.325,135 H 128"
             style="fill:none;stroke:#000000;stroke-width:40;stroke-linecap:round;stroke-linejoin:round;stroke-miterlimit:10;stroke-dasharray:none;stroke-opacity:1"
             id="path181" /></g></g></g></g></svg>
