<svg id="Line" enable-background="new 0 0 256 256" height="512" viewBox="0 0 256 256" width="512" xmlns="http://www.w3.org/2000/svg"><g fill="rgb(0,0,0)"><path d="m205.9285 97.4639c-1.8566-.5847-3.7698-1.1448-5.732-1.6818v-34.0242c0-9.8895-8.0459-17.9354-17.9352-17.9354h-23.715l-9.4585-16.2317-2.3762-1.3653h-35.7683l-2.3762 1.3653-9.4585 16.2317h-23.7154c-9.8893 0-17.9352 8.0459-17.9352 17.9354v34.0244c-1.962.5369-3.875 1.0969-5.7315 1.6816-21.6149 6.8068-33.5183 16.2688-33.5183 26.6433s11.9034 19.8368 33.5183 26.6436c19.3244 6.0856 44.568 9.6103 71.5866 10.0331l-13.8538 8.6814 2.9208 4.6605 18.638-11.6794 3.3937-2.1267v-4.6605l-22.0317-13.8061-2.9208 4.6605 13.9987 8.7722c-26.5188-.4092-51.2323-3.8456-70.0794-9.7812-18.8563-5.938-29.6705-13.7371-29.6705-21.3974s10.8142-15.4594 29.6705-21.3974c1.3304-.419 2.6919-.8246 4.0793-1.2185v12.0971c0 9.8895 8.0459 17.9354 17.9352 17.9354h106.8681c9.8893 0 17.9352-8.0459 17.9352-17.9354v-12.0973c1.3876.3939 2.7493.7996 4.0799 1.2186 18.8558 5.938 29.6699 13.7371 29.6699 21.3974s-10.8142 15.4594-29.6699 21.3974c-15.8399 4.9885-35.8247 8.2102-57.5412 9.3548v5.5057c22.2914-1.1577 42.858-4.47 59.1933-9.6143 21.6144-6.8068 33.5178-16.269 33.5178-26.6436s-11.9033-19.8365-33.5177-26.6432zm-11.232 16.1245c0 6.857-5.5784 12.4354-12.4352 12.4354h-106.8681c-6.8567 0-12.4352-5.5784-12.4352-12.4354v-51.8305c0-6.857 5.5784-12.4354 12.4352-12.4354h25.2957l2.3762-1.3653 9.4585-16.2317h32.6079l9.4585 16.2317 2.3762 1.3653h25.2952c6.8568 0 12.4352 5.5784 12.4352 12.4354v51.8305z"/><path d="m128.8275 49.7202c-19.6066 0-35.5577 15.9511-35.5577 35.5574 0 19.6066 15.9511 35.5577 35.5577 35.5577s35.5577-15.9511 35.5577-35.5577c.0001-19.6063-15.951-35.5574-35.5577-35.5574zm0 65.6152c-16.5741 0-30.0577-13.4839-30.0577-30.0577s13.4836-30.0574 30.0577-30.0574 30.0577 13.4836 30.0577 30.0574-13.4835 30.0577-30.0577 30.0577z"/><path d="m128.8275 103.7359c-10.1777 0-18.4583-8.2803-18.4583-18.4583 0-3.2396.8561-6.4311 2.4755-9.2294l-4.7599-2.7548c-2.1039 3.6343-3.2157 7.7787-3.2157 11.9843 0 13.2107 10.7476 23.9583 23.9583 23.9583 4.2061 0 8.3504-1.1121 11.9845-3.2159l-2.7554-4.7599c-2.7976 1.6196-5.9891 2.4757-9.229 2.4757z"/><path d="m128.8275 61.3193c-4.2061 0-8.3504 1.1121-11.9845 3.2159l2.7554 4.7599c2.7978-1.6197 5.9893-2.4758 9.2292-2.4758 10.1777 0 18.4583 8.2803 18.4583 18.4583 0 3.2398-.8562 6.4313-2.4761 9.2291l4.7599 2.7559c2.1039-3.6343 3.2162-7.7787 3.2162-11.9851-.0001-13.2106-10.7476-23.9582-23.9584-23.9582z"/><path d="m123.1175 187.8223h-9.95c-4.5493 0-8.25 3.701-8.25 8.25v20.4435 6.4391 3.004c0 4.5491 3.7007 8.25 8.25 8.25h9.95c4.5493 0 8.25-3.7009 8.25-8.25v-3.004-3.4353-3.0038c0-4.5491-3.7007-8.25-8.25-8.25h-9.95c-.9653 0-1.8883.1753-2.75.4813v-12.6748c0-1.5163 1.2337-2.75 2.75-2.75h9.95c1.5163 0 2.75 1.2337 2.75 2.75v7.1433h5.5v-7.1433c0-4.549-3.7007-8.25-8.25-8.25zm-9.9499 25.9435h9.95c1.5163 0 2.75 1.2337 2.75 2.75v3.0038 3.4353 3.004c0 1.5163-1.2337 2.75-2.75 2.75h-9.95c-1.5163 0-2.75-1.2337-2.75-2.75v-3.004-6.4391c0-1.5163 1.2337-2.75 2.75-2.75z"/><path d="m155.2184 187.8223h-9.95c-4.5493 0-8.25 3.701-8.25 8.25v29.8866c0 4.5491 3.7007 8.25 8.25 8.25h9.95c4.5493 0 8.25-3.7009 8.25-8.25v-29.8866c0-4.549-3.7007-8.25-8.25-8.25zm2.75 38.1366c0 1.5163-1.2337 2.75-2.75 2.75h-9.95c-1.5163 0-2.75-1.2337-2.75-2.75v-29.8866c0-1.5163 1.2337-2.75 2.75-2.75h9.95c1.5163 0 2.75 1.2337 2.75 2.75z"/><path d="m175.8574 180.2638c-4.9521 0-8.981 4.0289-8.981 8.981 0 4.9519 4.0289 8.9807 8.981 8.9807s8.981-4.0289 8.981-8.9807c0-4.9521-4.0289-8.981-8.981-8.981zm0 12.4618c-1.9196 0-3.481-1.5614-3.481-3.4807 0-1.9194 1.5614-3.481 3.481-3.481s3.481 1.5616 3.481 3.481c0 1.9193-1.5614 3.4807-3.481 3.4807z"/><path d="m91.0166 187.8223h-9.95c-4.5493 0-8.25 3.701-8.25 8.25v4.06h5.5v-4.06c0-1.5163 1.2337-2.75 2.75-2.75h9.95c1.5163 0 2.75 1.2337 2.75 2.75v12.1935h-13.779v5.5h13.779v12.1932c0 1.5163-1.2337 2.75-2.75 2.75h-9.95c-1.5163 0-2.75-1.2337-2.75-2.75v-4.06h-5.5v4.06c0 4.5491 3.7007 8.25 8.25 8.25h9.95c4.5493 0 8.25-3.7009 8.25-8.25v-29.8866c0-4.5491-3.7006-8.2501-8.25-8.2501z"/></g></svg>