<svg id="Capa_1" enable-background="new 0 0 512 512" height="512" viewBox="0 0 512 512" width="512" xmlns="http://www.w3.org/2000/svg"><g><g><path d="m495.484 272.516v-115.613c9.109 0 16.516-7.407 16.516-16.516 0-12.172-6.689-22.71-16.516-28.441v-54.14c0-31.876-25.93-57.806-57.807-57.806h-82.581c-31.876 0-57.806 25.93-57.806 57.806v4.369c-13.518-2.866-27.351-4.369-41.29-4.369-80.574 0-153.583 49.623-183.668 123.97-30.951 1.065-55.816 26.508-55.816 57.707v54.14c-9.827 5.732-16.516 16.269-16.516 28.442 0 9.109 7.407 16.516 16.516 16.516v115.613c0 31.876 25.93 57.806 57.806 57.806h82.581c31.876 0 57.806-25.93 57.806-57.806v-4.377c13.518 2.866 27.351 4.377 41.29 4.377 80.574 0 153.583-49.623 183.668-123.97 30.952-1.066 55.817-26.509 55.817-57.708zm-57.807 41.29c0-18.217 14.815-33.032 33.032-33.032 2.428 0 4.823.314 7.168.842-4.161 18.391-20.57 32.19-40.2 32.19zm41.291-48.796c-2.717-.462-5.467-.751-8.258-.751-27.326 0-49.548 22.222-49.548 49.548h-49.548c0-27.326-22.222-49.548-49.548-49.548-2.791 0-5.541.289-8.258.751v-108.107h16.516v74.323c0 13.659 11.115 24.774 24.774 24.774h82.581c13.659 0 24.774-11.115 24.774-24.774v-74.323h16.516v108.107zm-412.903 139.635h99.097v8.258c0 4.55-3.708 8.258-8.258 8.258h-82.581c-4.55 0-8.258-3.708-8.258-8.258zm99.096-16.516h-99.096v-82.581h99.097v82.581zm-97.577-99.097c3.419-9.588 12.503-16.516 23.255-16.516h49.548c10.752 0 19.836 6.929 23.255 16.516zm114.093 16.516h16.516c9.109 0 16.516 7.408 16.516 16.516h-33.032zm165.162-82.58h99.097v8.258c0 4.55-3.708 8.258-8.258 8.258h-82.581c-4.55 0-8.258-3.708-8.258-8.258zm99.096-16.516h-99.097v-82.581h99.097zm-97.577-99.097c3.419-9.588 12.503-16.516 23.255-16.516h49.548c10.752 0 19.836 6.929 23.255 16.516zm-18.035 33.032h-33.033c0-9.109 7.407-16.516 16.516-16.516h16.516v16.516zm-15.426 141.23c2.345-.529 4.74-.842 7.168-.842 18.217 0 33.032 14.815 33.032 33.032-19.63-.001-36.038-13.8-40.2-32.19zm-31.133-154.79c-9.084-1.949-18.382-2.956-27.764-2.956-44.057 0-84.497 21.554-109.18 57.806h-19.497c26.376-45.518 75.503-74.323 128.677-74.323 13.51 0 26.806 1.908 39.68 5.467-5.194 3.428-9.323 8.292-11.916 14.006zm-86.661 103.556c-2.345.529-4.74.842-7.168.842-18.217 0-33.032-14.815-33.032-33.032 19.63.001 36.038 13.8 40.2 32.19zm34.123 91.682c0-12.172-6.689-22.71-16.516-28.441v-54.14c0-28.532-20.802-52.241-48.021-56.915 21.843-26.641 54.289-42.182 89.311-42.182 8.473 0 16.871.958 25.055 2.766 1.321 7.787 8.076 13.75 16.235 13.75v115.613c0 28.532 20.802 52.241 48.021 56.915-21.843 26.641-54.288 42.182-89.311 42.182-14.295 0-28.127-2.7-41.29-7.746v-25.286c9.108 0 16.516-7.408 16.516-16.516zm-16.516 59.425c13.262 4.377 27.095 6.639 41.29 6.639 44.057 0 84.497-21.554 109.18-57.806h19.497c-26.376 45.518-75.503 74.323-128.677 74.323-14.072 0-27.912-2.073-41.29-5.929zm247.742-241.103v-16.516h16.516c9.109 0 16.516 7.407 16.516 16.516zm15.426-91.681c-2.345.529-4.74.842-7.168.842-18.217 0-33.032-14.815-33.032-33.032 19.629 0 36.038 13.799 40.2 32.19zm-56.717-32.19c0 27.326 22.222 49.548 49.548 49.548 2.791 0 5.541-.289 8.258-.751v42.042h-17.35c-3.84-18.82-20.521-33.032-40.456-33.032h-49.548c-19.935 0-36.616 14.212-40.456 33.032h-17.35v-42.042c2.717.462 5.467.751 8.258.751 27.326 0 49.548-22.222 49.548-49.548zm-66.064 0c0 18.217-14.815 33.032-33.032 33.032-2.428 0-4.823-.314-7.168-.842 4.162-18.391 20.57-32.19 40.2-32.19zm-99.097 57.807c13.973 0 27.813 1.685 41.29 4.814v16.979c-13.428-3.468-27.26-5.277-41.29-5.277-62.225 0-119.445 35.518-147.406 90.839h-18.342c29.061-64.661 94.167-107.355 165.748-107.355zm-181.677 123.871c0 18.217-14.815 33.032-33.032 33.032-2.428 0-4.823-.314-7.168-.842 4.161-18.391 20.57-32.19 40.2-32.19zm-41.291 48.796c2.717.462 5.467.751 8.258.751 27.326 0 49.548-22.222 49.548-49.548h49.548c0 27.326 22.222 49.548 49.548 49.548 2.791 0 5.541-.289 8.258-.751v42.042h-17.35c-3.839-18.82-20.512-33.032-40.455-33.032h-49.548c-19.935 0-36.616 14.212-40.456 33.032h-17.35v-42.042zm0 58.558h16.516v16.516h-33.032c0-9.108 7.408-16.516 16.516-16.516zm1.09 157.746c2.345-.529 4.74-.842 7.168-.842 18.217 0 33.032 14.815 33.032 33.032-19.629 0-36.038-13.799-40.2-32.19zm56.717 32.19c0-27.326-22.222-49.548-49.548-49.548-2.791 0-5.541.289-8.258.751v-108.106h16.516v74.323c0 13.659 11.115 24.774 24.774 24.774h82.581c13.659 0 24.774-11.115 24.774-24.774v-74.323h16.516v108.106c-2.717-.462-5.467-.751-8.258-.751-27.326 0-49.548 22.222-49.548 49.548zm66.064 0c0-18.217 14.815-33.032 33.032-33.032 2.428 0 4.823.314 7.168.842-4.162 18.391-20.57 32.19-40.2 32.19zm99.097-57.807c-13.973 0-27.813-1.676-41.29-4.814v-16.979c13.436 3.46 27.268 5.277 41.29 5.277 62.225 0 119.445-35.518 147.406-90.839h18.341c-29.06 64.661-94.166 107.355-165.747 107.355z"/><path d="m401.221 404.645h23.354v16.516h-23.354z" transform="matrix(.707 -.707 .707 .707 -171.032 412.899)"/><path d="m402.634 429.422h70.069v16.516h-70.069z" transform="matrix(.707 -.707 .707 .707 -181.297 437.672)"/><path d="m414.02 458.323h105.108v16.516h-105.108z" transform="matrix(.707 -.707 .707 .707 -193.266 466.576)"/><path d="m87.418 90.839h23.354v16.516h-23.354z" transform="matrix(.707 -.707 .707 .707 -41.048 99.096)"/><path d="m39.284 66.068h70.069v16.516h-70.069z" transform="matrix(.707 -.707 .707 .707 -30.789 74.321)"/><path d="m-7.135 37.161h105.108v16.516h-105.108z" transform="matrix(.707 -.707 .707 .707 -18.814 45.419)"/></g></g></svg>