<svg id="Layer_1" enable-background="new 0 0 68 68" viewBox="0 0 68 68" xmlns="http://www.w3.org/2000/svg"><g><path d="m28.66606 30.63623c1.69336 0 3.07129-1.37793 3.07129-3.07129v-10.70605c0-1.69385-1.37793-3.07178-3.07129-3.07178h-15.81641c-1.69336 0-3.07129 1.37793-3.07129 3.07178v10.70605c0 1.69336 1.37793 3.07129 3.07129 3.07129zm-17.3877-3.07129v-10.70605c0-.8667.70508-1.57178 1.57129-1.57178h15.81641c.86621 0 1.57129.70508 1.57129 1.57178v10.70605c0 .86621-.70508 1.57129-1.57129 1.57129h-15.81641c-.86621 0-1.57129-.70508-1.57129-1.57129z"/><path d="m65.21586 14.79639c-2.18261-1.13867-4.88867-.28564-6.03125 1.90527-4.11602 7.9481-7.00305 13.52299-10.9541 21.15253-2.8291.79614-4.91211 3.3938-4.91211 6.47443v20.17138h-4.96289v-20.88843c1.12427-.30908 1.95703-1.32971 1.95703-2.55103v-2.00488c0-1.46436-1.19141-2.65576-2.65625-2.65576h-.63672v-26.39502h1.30957c1.46484 0 2.65625-1.19141 2.65625-2.65576v-2.69336c0-1.46435-1.1914-2.65576-2.65625-2.65576h-35.14355c-1.46485 0-2.65625 1.19141-2.65625 2.65576v2.69336c0 1.46436 1.19141 2.65576 2.65625 2.65576h1.30957v26.39502h-.63672c-1.46484 0-2.65625 1.19141-2.65625 2.65576v2.00488c0 1.22131.83276 2.24194 1.95703 2.55103v20.88843h-2.03613c-.41406 0-.75.33594-.75.75s.33594.75.75.75h58.57422c.41406 0 .75-.33594.75-.75s-.33594-.75-.75-.75h-2.91797v-20.17139c0-.90656-.18262-1.77063-.50903-2.56067 8.18955-15.81938 9.60797-18.55928 10.84692-20.95251 1.13523-2.16219.31907-4.86141-1.90137-6.01904zm-63.18652-7.44727v-2.69336c0-.63721.51855-1.15576 1.15625-1.15576h35.14355c.6377 0 1.15625.51855 1.15625 1.15576v2.69336c0 .63721-.51855 1.15576-1.15625 1.15576-12.94604 0-22.34068 0-35.14355 0-.6377 0-1.15625-.51855-1.15625-1.15576zm3.96582 2.65576h29.52442v26.39502h-7.15528v-1.04785c0-1.17627-.95703-2.13281-2.13281-2.13281h-10.67871c-1.17578 0-2.13281.95654-2.13281 2.13281v1.04785h-7.42481zm8.9248 26.39112v-1.04395c0-.34912.28418-.63281.63281-.63281h10.67871c.34863 0 .63281.28369.63281.63281v1.04395zm-12.21777 4.66455v-2.00488c0-.63721.51855-1.15576 1.15625-1.15576h33.79785c.6377 0 1.15625.51855 1.15625 1.15576v2.00488c0 .6377-.51855 1.15625-1.15625 1.15625h-.05078-33.69629-.05078c-.6377 0-1.15625-.51856-1.15625-1.15625zm1.95703 23.43945v-20.7832h32.19629v20.7832zm55.81592-34.11676-3.79053-5.59186 2.33789-4.5152 3.78882 5.59442zm-3.11768 6.02277-3.79492-5.58618 2.33691-4.51239 3.79077 5.5921zm-12.53906 7.9226c0-2.81099 2.26075-5.22945 5.28247-5.22571 2.87373.02887 5.17847 2.39268 5.17847 5.22571v20.17041h-10.46094zm5.23438-6.73095 2.72583-5.26361 3.79492 5.58636-1.19263 2.30371c-1.26309-1.62892-3.22372-2.62646-5.32812-2.62646zm15.73437-17.47559-2.19091 4.23242-3.78857-5.59418.70801-1.36725c.75781-1.45459 2.55664-2.02344 4.00683-1.2666 1.46748.76489 2.02484 2.54596 1.26464 3.99561z"/><path d="m30.75199 46.27637h-19.98925c-1.42676 0-2.58789 1.16113-2.58789 2.58789v10.17724c0 1.42676 1.16113 2.58789 2.58789 2.58789h19.98926c1.42774 0 2.58887-1.16113 2.58887-2.58789v-10.17724c-.00001-1.42676-1.16114-2.58789-2.58888-2.58789zm1.08887 12.76513c0 .6001-.48828 1.08789-1.08887 1.08789h-19.98925c-.59961 0-1.08789-.48779-1.08789-1.08789v-10.17724c0-.6001.48828-1.08789 1.08789-1.08789h19.98926c.60059 0 1.08887.48779 1.08887 1.08789v10.17724z"/><path d="m51.02934 43.2998h-1.96094c-.41406 0-.75.33594-.75.75s.33594.75.75.75h1.96094c.41406 0 .75-.33594.75-.75s-.33594-.75-.75-.75z"/><path d="m14.95317 20.14258 1.46289-1.76172c.26465-.31836.2207-.7915-.09766-1.05615-.31933-.26465-.79199-.22119-1.05664.09814l-1.46289 1.76172c-.26465.31836-.2207.7915.09766 1.05615.3203.26469.79219.22024 1.05664-.09814z"/><path d="m15.2686 23.5957c.32436.25086.7959.19405 1.05176-.13672l3.70313-4.81152c.25195-.32813.19141-.79932-.1377-1.05176-.32813-.25342-.79883-.19092-1.05176.13672l-3.70312 4.81152c-.25196.32813-.19142.79932.13769 1.05176z"/><path d="m17.22074 6.75244h.35254c.41406 0 .75-.33594.75-.75s-.33594-.75-.75-.75h-.35254c-.41406 0-.75.33594-.75.75s.33594.75.75.75z"/><path d="m14.72758 6.75244c.41406 0 .75-.33594.75-.75s-.33594-.75-.75-.75h-9.48242c-.41406 0-.75.33594-.75.75s.33594.75.75.75z"/><path d="m40.61528 17.57324c0-.41406-.33594-.75-.75-.75s-.75.33594-.75.75v.35254c0 .41406.33594.75.75.75s.75-.33594.75-.75z"/><path d="m39.86528 19.66895c-.41406 0-.75.33594-.75.75v9.48242c0 .41406.33594.75.75.75s.75-.33594.75-.75v-9.48242c0-.41407-.33594-.75-.75-.75z"/><path d="m47.51469 49.06787c-.41406 0-.75.33594-.75.75v.35254c0 .41406.33594.75.75.75s.75-.33594.75-.75v-.35254c0-.41406-.33594-.75-.75-.75z"/><path d="m47.51469 51.91357c-.41406 0-.75.33594-.75.75v5.84326c0 .41406.33594.75.75.75s.75-.33594.75-.75v-5.84326c0-.41406-.33594-.75-.75-.75z"/><path d="m21.68852 49.98291h-.35254c-.41406 0-.75.33594-.75.75s.33594.75.75.75h.35254c.41406 0 .75-.33594.75-.75s-.33594-.75-.75-.75z"/><path d="m18.84281 49.98291h-5.84277c-.41406 0-.75.33594-.75.75s.33594.75.75.75h5.84277c.41406 0 .75-.33594.75-.75s-.33593-.75-.75-.75z"/></g></svg>