<svg id="Capa_1" enable-background="new 0 0 512 512" height="512" viewBox="0 0 512 512" width="512" xmlns="http://www.w3.org/2000/svg"><g><g><path d="m470.71 181.677h-115.613v-8.258c0-13.659-11.115-24.774-24.774-24.774h-41.29v-25.55c20.166-11.735 33.032-33.478 33.032-57.03 0-36.427-29.639-66.065-66.065-66.065s-66.065 29.638-66.065 66.065c0 23.552 12.866 45.304 33.032 57.03v25.55h-41.29c-13.659 0-24.774 11.115-24.774 24.774v8.258h-115.613c-22.767 0-41.29 18.523-41.29 41.291v214.71c0 22.767 18.523 41.29 41.29 41.29h115.613v8.258c0 13.659 11.115 24.774 24.774 24.774h148.645c13.659 0 24.774-11.115 24.774-24.774v-8.258h115.614c22.767 0 41.29-18.523 41.29-41.29v-214.71c0-22.768-18.523-41.291-41.29-41.291zm-264.258-115.612c0-27.326 22.222-49.548 49.548-49.548s49.548 22.222 49.548 49.548c0 14.212-6.21 27.615-16.516 36.889v-36.889h-66.065v36.889c-10.305-9.275-16.515-22.677-16.515-36.889zm33.032 16.516h33.032v66.065h-33.032zm-66.065 90.838c0-4.55 3.7-8.258 8.258-8.258h148.645c4.558 0 8.258 3.708 8.258 8.258v8.258h-165.161zm165.162 313.807c0 4.55-3.7 8.258-8.258 8.258h-148.646c-4.558 0-8.258-3.708-8.258-8.258v-8.258h165.161v8.258zm156.903-49.549c0 13.659-11.115 24.774-24.774 24.774h-429.42c-13.659 0-24.774-11.115-24.774-24.774v-214.71c0-13.659 11.115-24.774 24.774-24.774h429.42c13.659 0 24.774 11.115 24.774 24.774z"/><circle cx="470.71" cy="222.968" r="8.258"/><path d="m462.452 280.774h16.516v99.097h-16.516z"/><path d="m57.806 280.774c-13.659 0-24.774 11.115-24.774 24.774v49.548c0 13.659 11.115 24.774 24.774 24.774s24.774-11.115 24.774-24.774v-49.548c.001-13.658-11.115-24.774-24.774-24.774zm8.259 74.323c0 4.55-3.7 8.258-8.258 8.258s-8.258-3.708-8.258-8.258v-49.548c0-4.55 3.7-8.258 8.258-8.258s8.258 3.708 8.258 8.258z"/><path d="m429.419 214.71h-313.806c-9.109 0-16.516 7.407-16.516 16.516v198.194c0 9.109 7.407 16.516 16.516 16.516h313.806c9.109 0 16.516-7.408 16.516-16.516v-198.194c0-9.109-7.407-16.516-16.516-16.516zm-242.663 155.243c4.525 5.987 11.627 9.918 19.695 9.918v16.516c0 9.109 7.407 16.516 16.516 16.516h16.516c9.109 0 16.516-7.407 16.516-16.516v-16.516h33.032v16.516c0 9.109 7.407 16.516 16.516 16.516h16.516c9.109 0 16.516-7.407 16.516-16.516v-16.516c8.068 0 15.17-3.931 19.695-9.918l59.466 59.466h-290.45zm36.212-39.63h99.097c13.659 0 24.774 11.115 24.774 24.774 0 4.55-3.7 8.258-8.258 8.258h-132.129c-4.558 0-8.258-3.708-8.258-8.258 0-13.659 11.115-24.774 24.774-24.774zm-5.541-15.955 4.071-42.636c.413-4.261 3.947-7.474 8.225-7.474h85.578c4.286 0 7.812 3.212 8.225 7.474l4.071 42.636c-1.825-.248-3.634-.562-5.533-.562h-99.097c-1.899 0-3.707.314-5.54.562zm88.121 65.503h16.516v16.516h-16.516zm-82.58 0h16.516v16.516h-16.516zm206.451-148.645.008 186.525-66.453-66.453c-1.189-12.759-8.027-23.882-18.176-30.613l-4.823-50.515c-1.222-12.792-11.826-22.429-24.667-22.429h-85.587c-12.85 0-23.453 9.637-24.659 22.421l-4.823 50.523c-10.157 6.73-16.987 17.854-18.176 30.613l-66.453 66.444v-186.516z"/><circle cx="222.968" cy="346.839" r="8.258"/><circle cx="322.065" cy="346.839" r="8.258"/></g></g></svg>