<svg id="Layer_1" enable-background="new 0 0 290.114 442.484" height="512" viewBox="0 0 290.114 442.484" width="512" xmlns="http://www.w3.org/2000/svg"><g><path d="m80.492 212.716-5.188 32.282s2.882 51.882 10.376 62.258 46.694 12.106 59.376 12.106 51.882-1.729 59.376-12.106 10.376-62.258 10.376-62.258l-5.188-32.282s0-51.261 0-101.355l16.156 2.434s-.888-8.295-6.018-9.068c-2.678-.403-6.804-1.025-10.138-1.527 0-8.305 0-16.496 0-24.334 1.563-1.086 2.594-2.892 2.594-4.929v-33.733c0-2.037-1.031-3.843-2.594-4.929 0-10.342 0-17.124 0-18.365 0-1.827-2.772-3.833-7.27-5.803-.789-1.919-2.547-3.387-4.741-3.684l-11.445-1.551c-13.367-3.381-29.678-5.872-41.107-5.872s-27.741 2.491-41.109 5.871l-11.445 1.551c-2.194.297-3.952 1.765-4.741 3.684-4.497 1.971-7.27 3.976-7.27 5.803v18.365c-1.563 1.086-2.594 2.892-2.594 4.929v33.733c0 2.037 1.031 3.843 2.594 4.929v24.334c-3.334.502-7.46 1.124-10.138 1.527-5.13.773-6.018 9.068-6.018 9.068l16.156-2.434zm6.966-98.576s13.89 40.96 14.582 58.415h-14.052c-.226-26.808-.53-58.415-.53-58.415zm.769 93.388c0-4.502-.086-16.454-.201-30.361h13.954c-.679 18.931-4.24 70.249-6.067 76.094-1.922 6.149-7.686-32.282-7.686-45.733zm97.098 75.229c-5.188 5.188-23.155 9.512-40.449 9.512s-35.261-4.323-40.449-9.512c-5.188-5.188-.288-38.911-.288-38.911s26.614 5.476 40.737 5.476 40.737-5.476 40.737-5.476 4.901 33.722-.288 38.911zm16.97-168.617s-.304 31.606-.53 58.415h-14.052c.693-17.455 14.582-58.415 14.582-58.415zm-8.455 139.121c-1.826-5.844-5.388-57.162-6.067-76.094h13.953c-.115 13.907-.201 25.859-.201 30.361.002 13.451-5.763 51.882-7.685 45.733zm.613-159.105c5.765 7.686-8.455 48.807-8.455 48.807s-21.137-5.38-41.121-5.38-41.121 5.38-41.121 5.38-14.22-41.121-8.456-48.807 19.216-9.608 49.576-9.608c30.361 0 43.812 1.922 49.577 9.608z"/><path d="m143.562 102.427h1.407v22.473h-1.407z" transform="matrix(.707 -.707 .707 .707 -38.118 135.302)"/><path d="m147.988 98h1.407v22.473h-1.407z" transform="matrix(.707 -.707 .707 .707 -33.691 137.136)"/><path d="m145.775 88.14h1.407v46.62h-1.407z" transform="matrix(.707 -.707 .707 .707 -35.905 136.219)"/><path d="m143.562 260.763h1.407v22.473h-1.407z" transform="matrix(.707 -.707 .707 .707 -150.078 181.677)"/><path d="m147.988 256.336h1.407v22.473h-1.407z" transform="matrix(.707 -.707 .707 .707 -145.652 183.512)"/><path d="m145.775 246.476h1.407v46.62h-1.407z" transform="matrix(.707 -.707 .707 .707 -147.865 182.595)"/><path d="m216.392 424.653c3.583-1.917 7.13-4.005 10.543-6.207l-3.252-5.042c-3.276 2.113-6.682 4.118-10.121 5.958z"/><path d="m99.597 429.224-1.873 5.7c3.86 1.268 7.822 2.394 11.775 3.346l1.404-5.833c-3.796-.915-7.599-1.996-11.306-3.213z"/><path d="m250.721 390.903 4.367 4.114c2.772-2.943 5.472-6.054 8.021-9.247l-4.688-3.744c-2.448 3.066-5.039 6.053-7.7 8.877z"/><path d="m180.763 432.053c-3.78.955-7.65 1.767-11.501 2.415l.994 5.917c4.011-.674 8.039-1.52 11.976-2.514z"/><path d="m236.937 411.406c3.22-2.467 6.384-5.102 9.405-7.829l-4.021-4.454c-2.901 2.62-5.941 5.15-9.034 7.521z"/><path d="m88.589 425.103c-3.597-1.515-7.176-3.198-10.639-5.002l-2.771 5.321c3.606 1.879 7.335 3.632 11.08 5.21z"/><path d="m202.986 424.478c-3.578 1.554-7.265 2.98-10.957 4.238l1.936 5.68c3.846-1.311 7.686-2.796 11.412-4.415z"/><path d="m134.111 436.076c-3.891-.292-7.819-.747-11.677-1.352l-.93 5.928c4.016.629 8.106 1.103 12.157 1.407z"/><path d="m32.667 383.231c-2.45-3-4.829-6.162-7.072-9.397l-4.932 3.419c2.333 3.363 4.808 6.652 7.355 9.773z"/><path d="m157.602 435.947c-3.886.335-7.836.516-11.742.537l.033 6c4.066-.022 8.179-.21 12.225-.56z"/><path d="m42.339 393.939c-.633-.633-1.259-1.271-1.878-1.914l-4.322 4.161c.645.67 1.298 1.335 1.958 1.996 2.219 2.218 4.533 4.395 6.879 6.469l3.975-4.495c-2.256-1.993-4.479-4.085-6.612-6.217z"/><path d="m67.755 414.248c-3.3-2.078-6.559-4.32-9.686-6.664l-3.6 4.801c3.257 2.441 6.651 4.777 10.088 6.94z"/><path d="m246.131 361.12c-4.259 6.154-9.022 11.879-14.159 17.016-23.215 23.215-54.082 36-86.915 36-32.832 0-63.698-12.786-86.914-36.001-5.137-5.137-9.9-10.862-14.159-17.015l-3.289 2.276c4.395 6.35 9.313 12.261 14.62 17.567 23.971 23.971 55.842 37.173 89.742 37.173 33.901 0 65.772-13.201 89.743-37.172 5.306-5.306 10.225-11.216 14.62-17.567z"/><path d="m71.825 364.453c19.561 19.561 45.567 30.333 73.231 30.333 27.663 0 53.671-10.772 73.232-30.333 4.331-4.332 8.345-9.154 11.931-14.335l-3.289-2.276c-3.45 4.984-7.309 9.622-11.47 13.784-18.807 18.805-43.81 29.161-70.404 29.161-26.596 0-51.599-10.356-70.403-29.162-4.159-4.159-8.019-8.796-11.47-13.783l-3.289 2.276c3.588 5.184 7.602 10.006 11.931 14.335z"/><path d="m145.057 367.436c-20.358 0-39.498-7.928-53.893-22.323-3.18-3.179-6.134-6.729-8.779-10.55l-3.289 2.276c2.782 4.019 5.891 7.754 9.24 11.103 15.15 15.15 35.294 23.494 56.721 23.494s41.57-8.343 56.722-23.493c3.355-3.356 6.465-7.092 9.24-11.104l-3.289-2.276c-2.64 3.815-5.594 7.365-8.779 10.552-14.396 14.394-33.536 22.321-53.894 22.321z"/><path d="m258.726 287.555 31.388-39.637-20.055 7.241-11.333-98.129-11.333 98.129-20.055-7.241z"/><path d="m31.388 287.555 31.388-39.637-20.055 7.241-11.333-98.129-11.333 98.129-20.055-7.241z"/></g></svg>