<svg enable-background="new 0 0 100 100" height="512" viewBox="0 0 100 100" width="512" xmlns="http://www.w3.org/2000/svg"><g id="_x32_4_Led_Tv"><g><path d="m93.238 14.449h-86.476c-3.17 0-5.748 2.578-5.748 5.748v52.115c0 3.17 2.578 5.748 5.748 5.748h28.744l-.885.987c-2.251 2.512-.469 6.503 2.903 6.503h24.951c3.374 0 5.153-3.993 2.903-6.503l-.885-.987h28.744c3.17 0 5.748-2.578 5.748-5.748v-52.115c.001-3.17-2.577-5.748-5.747-5.748zm-29.583 66.145c.917 1.023.196 2.643-1.18 2.643h-24.951c-1.378 0-2.095-1.621-1.18-2.643l2.271-2.533h22.769zm33.017-8.281c0 1.894-1.54 3.434-3.434 3.434-27.102 0-59.057 0-86.476 0-1.894 0-3.434-1.54-3.434-3.434v-52.116c0-1.894 1.54-3.434 3.434-3.434h86.476c1.894 0 3.434 1.54 3.434 3.434z"/><path d="m44.752 81.805h1.312c.639 0 1.157-.518 1.157-1.157s-.518-1.157-1.157-1.157h-1.312c-.639 0-1.157.518-1.157 1.157s.518 1.157 1.157 1.157z"/><path d="m53.936 81.805h1.312c.639 0 1.157-.518 1.157-1.157s-.518-1.157-1.157-1.157h-1.312c-.639 0-1.157.518-1.157 1.157-.001.639.518 1.157 1.157 1.157z"/><path d="m90.166 26.471c.454.454 1.186.45 1.636 0 .452-.452.452-1.184 0-1.636l-2.373-2.375c-.451-.451-1.183-.454-1.636 0-.452.452-.452 1.184 0 1.636z"/><path d="m82.858 21.987c-.452-.452-1.184-.452-1.636 0s-.452 1.184 0 1.636l9.418 9.418c.452.452 1.184.452 1.636 0s.452-1.184 0-1.636z"/></g></g></svg>