<svg id="Layer_1" enable-background="new 0 0 512 512" viewBox="0 0 512 512" xmlns="http://www.w3.org/2000/svg"><path clip-rule="evenodd" d="m292.031 81.062c-111.183 0-202.545 86.457-210.41 195.671-2.114-6.032-3.277-12.508-3.277-19.253v-82.883h13.904c3.866 0 7-3.134 7-7v-40.527c20.401-10.258 34.44-31.377 34.44-55.726 0-34.377-27.967-62.344-62.344-62.344s-62.344 27.967-62.344 62.344c0 24.349 14.039 45.468 34.439 55.726v40.527c0 3.866 3.134 7 7 7h13.904v82.883c0 17.747 6.432 34.012 17.072 46.615 6.275 110.736 98.338 198.905 210.616 198.905 116.328 0 210.969-94.64 210.969-210.968 0-116.329-94.641-210.97-210.969-210.97zm-269.031-9.718c0-26.657 21.687-48.344 48.344-48.344s48.345 21.687 48.345 48.344-21.688 48.345-48.345 48.345-48.344-21.688-48.344-48.345zm34.439 60.762c4.475 1.024 9.124 1.583 13.904 1.583s9.43-.559 13.904-1.583v28.491h-27.808zm425.621 207.982-25.216 13.496c-3.409 1.824-4.693 6.066-2.869 9.475 1.262 2.357 3.68 3.698 6.178 3.698 1.115 0 2.246-.267 3.297-.829l12.793-6.847c-3.636 10.013-8.068 19.645-13.209 28.83l-27.771 6.49c-3.765.88-6.104 4.645-5.224 8.409.755 3.229 3.631 5.409 6.811 5.409.527 0 1.063-.061 1.599-.186l14.008-3.274c-6.072 8.669-12.824 16.827-20.177 24.399l-28.427-.916c-3.881-.151-7.097 2.906-7.222 6.771s2.906 7.098 6.771 7.222l14.347.462c-8.048 6.779-16.641 12.928-25.708 18.367l-27.287-8.262c-3.696-1.122-7.607.971-8.728 4.671s.971 7.607 4.671 8.728l13.844 4.191c-9.484 4.458-19.373 8.194-29.604 11.109l-24.305-15.096c-3.288-2.039-7.602-1.03-9.64 2.253-2.04 3.284-1.031 7.6 2.253 9.64l12.339 7.664c-10.268 1.824-20.811 2.838-31.557 2.999l-19.536-20.837c-2.646-2.821-7.076-2.963-9.895-.318-2.82 2.644-2.963 7.074-.318 9.895l9.911 10.571c-10.668-.908-21.096-2.666-31.215-5.213l-13.496-25.215c-1.825-3.41-6.07-4.692-9.475-2.869-3.409 1.824-4.693 6.066-2.869 9.475l6.846 12.792c-10.013-3.636-19.645-8.068-28.83-13.209l-6.49-27.769c-.88-3.765-4.647-6.103-8.409-5.224-3.765.88-6.104 4.645-5.224 8.409l3.273 14.007c-8.668-6.072-16.826-12.823-24.398-20.177l.915-28.426c.125-3.864-2.907-7.098-6.771-7.222-3.886-.144-7.098 2.906-7.222 6.771l-.462 14.345c-6.779-8.047-12.927-16.64-18.366-25.707l8.261-27.286c1.121-3.7-.971-7.607-4.671-8.728-3.703-1.123-7.608.971-8.728 4.671l-4.191 13.843c-4.458-9.484-8.193-19.372-11.109-29.604l12.125-19.521c6.951 2.227 14.352 3.441 22.033 3.441h26.067c16.385 55.897 68.121 96.837 129.246 96.837 74.252 0 134.66-60.408 134.66-134.66s-60.408-134.661-134.66-134.661-134.659 60.408-134.659 134.66c0 8.127.724 16.089 2.11 23.823h-22.762c-16.241 0-30.949-6.673-41.541-17.413-.037-1.135-.06-2.274-.077-3.414l20.837-19.537c2.82-2.645 2.963-7.074.318-9.895-2.646-2.821-7.075-2.964-9.895-.318l-10.571 9.912c.908-10.668 2.666-21.097 5.213-31.217l25.215-13.495c3.409-1.824 4.693-6.066 2.869-9.475-1.825-3.41-6.07-4.692-9.475-2.869l-12.792 6.846c3.636-10.012 8.068-19.644 13.208-28.829l27.77-6.49c3.765-.88 6.104-4.645 5.224-8.409s-4.646-6.102-8.409-5.224l-14.007 3.274c6.072-8.669 12.824-16.826 20.177-24.399l28.426.915c.077.003.153.004.229.004 3.762 0 6.871-2.987 6.992-6.774.125-3.864-2.907-7.098-6.771-7.222l-14.346-.462c8.047-6.779 16.64-12.927 25.707-18.366l27.286 8.262c.676.205 1.358.303 2.031.303 3.004 0 5.781-1.95 6.696-4.974 1.121-3.7-.971-7.607-4.671-8.728l-13.843-4.191c9.484-4.458 19.372-8.194 29.604-11.109l24.305 15.096c1.15.714 2.426 1.055 3.687 1.055 2.34 0 4.628-1.174 5.953-3.308 2.04-3.284 1.031-7.6-2.253-9.64l-12.34-7.665c10.267-1.824 20.81-2.838 31.555-3l19.538 20.838c1.378 1.47 3.24 2.212 5.107 2.212 1.717 0 3.437-.627 4.787-1.894 2.82-2.645 2.963-7.074.318-9.895l-9.913-10.572c10.668.908 21.097 2.666 31.217 5.212l13.495 25.216c1.262 2.357 3.68 3.698 6.178 3.698 1.115 0 2.246-.267 3.297-.829 3.409-1.824 4.693-6.066 2.869-9.475l-6.847-12.793c10.013 3.636 19.646 8.068 28.831 13.209l6.49 27.771c.755 3.229 3.632 5.409 6.811 5.409.527 0 1.063-.061 1.599-.186 3.765-.88 6.104-4.645 5.224-8.409l-3.274-14.009c8.669 6.072 16.827 12.823 24.399 20.177l-.916 28.427c-.125 3.864 2.906 7.098 6.771 7.222.077.003.153.004.229.004 3.762 0 6.87-2.987 6.992-6.774l.462-14.347c6.779 8.048 12.928 16.641 18.367 25.708l-8.262 27.286c-1.121 3.7.971 7.607 4.671 8.728.676.205 1.358.303 2.031.303 3.004 0 5.781-1.95 6.696-4.974l4.191-13.844c4.458 9.484 8.194 19.372 11.109 29.604l-15.096 24.306c-2.04 3.284-1.031 7.6 2.253 9.64 1.149.714 2.426 1.055 3.687 1.055 2.341 0 4.628-1.174 5.953-3.308l7.665-12.341c1.825 10.268 2.838 20.811 3 31.557l-20.838 19.538c-2.82 2.645-2.963 7.074-.318 9.895 1.378 1.47 3.24 2.212 5.107 2.212 1.717 0 3.437-.627 4.787-1.894l10.572-9.913c-.903 10.671-2.661 21.1-5.208 31.219zm-386.315-22.313c1.607 1.069 3.26 2.074 4.953 3.015l-3.599 5.793c-.517-2.914-.966-5.851-1.354-8.808zm162.504-107.459.907 12.452c.344 4.717-2.87 10.261-8.188 14.124-5.316 3.862-11.581 5.204-15.963 3.422l-11.523-4.695c9.259-11.067 21.178-19.832 34.767-25.303zm-43.062 37.04 14.538 5.923c3.038 1.238 6.301 1.846 9.653 1.845 6.61 0 13.566-2.361 19.82-6.905 9.425-6.848 14.629-16.742 13.921-26.468l-1.143-15.685c6.138-1.359 12.513-2.083 19.054-2.083s12.916.723 19.054 2.083l-1.143 15.685c-.708 9.726 4.496 19.62 13.921 26.468 6.255 4.544 13.21 6.905 19.821 6.905 3.352 0 6.615-.606 9.654-1.845l14.536-5.923c6.395 10.815 10.543 23.107 11.798 36.233l-15.265 3.759c-9.468 2.332-17.27 10.338-20.869 21.418-3.601 11.08-1.995 22.145 4.295 29.597l10.11 11.977c-8.459 9.551-18.956 17.256-30.804 22.428l-8.288-13.35c-5.144-8.285-15.17-13.23-26.821-13.23-11.65 0-21.676 4.946-26.818 13.23l-8.289 13.351c-11.848-5.172-22.344-12.876-30.803-22.427l10.111-11.979c6.289-7.451 7.896-18.515 4.295-29.595-3.6-11.08-11.401-19.087-20.87-21.419l-15.266-3.76c1.255-13.126 5.403-25.418 11.798-36.233zm107.717-24.588.907-12.452c13.589 5.471 25.508 14.236 34.766 25.303l-11.521 4.695c-4.382 1.782-10.647.44-15.964-3.422-5.318-3.863-8.531-9.407-8.188-14.124zm42.66 116.082-8.034-9.518c-3.051-3.615-3.71-9.989-1.679-16.24 2.03-6.25 6.311-11.02 10.902-12.15l12.12-2.985c-.998 14.953-5.745 28.895-13.309 40.893zm-53.02 38.566c-6.888 1.736-14.095 2.663-21.514 2.663s-14.626-.927-21.514-2.663l6.589-10.614c2.494-4.018 8.353-6.614 14.924-6.614 6.573 0 12.432 2.597 14.927 6.615zm-96.047-38.565c-7.564-11.999-12.312-25.941-13.31-40.894l12.121 2.985c4.593 1.131 8.872 5.9 10.903 12.151 2.03 6.25 1.371 12.625-1.679 16.238zm74.533 55.228c56.27 0 102.048-45.778 102.048-102.048s-45.778-102.048-102.048-102.048-102.048 45.778-102.048 102.048c0 8.202.979 16.178 2.815 23.824h-19.061c-1.549-7.704-2.367-15.67-2.367-23.823 0-66.533 54.128-120.661 120.661-120.661 66.532 0 120.66 54.128 120.66 120.661 0 66.532-54.128 120.66-120.66 120.66-53.327 0-98.677-34.775-114.583-82.837h19.805c15.06 37.597 51.866 64.224 94.778 64.224zm0-70.109c17.611 0 31.939-14.328 31.939-31.939s-14.328-31.938-31.939-31.938-31.938 14.327-31.938 31.938 14.327 31.939 31.938 31.939zm0-49.878c9.892 0 17.939 8.047 17.939 17.938s-8.048 17.939-17.939 17.939-17.938-8.048-17.938-17.939 8.047-17.938 17.938-17.938zm-220.686-192.747c-5.508 0-10-4.492-10-10 0-.926.137-1.82.375-2.672l-13.401-23.21c-1.933-3.348-.785-7.629 2.562-9.562 3.35-1.932 7.63-.786 9.562 2.562l13.402 23.212c4.302 1.117 7.5 5.027 7.5 9.67 0 5.507-4.492 10-10 10z" fill-rule="evenodd"/></svg>